<?xml version="1.0" encoding="UTF-8"?>
<!DOCTYPE svg PUBLIC "-//W3C//DTD SVG 1.1//EN" "http://www.w3.org/Graphics/SVG/1.1/DTD/svg11.dtd">
<!-- Creator: CorelDRAW -->
<svg xmlns="http://www.w3.org/2000/svg" xml:space="preserve" width="1.70666in" height="1.70666in" version="1.1" style="shape-rendering:geometricPrecision; text-rendering:geometricPrecision; image-rendering:optimizeQuality; fill-rule:evenodd; clip-rule:evenodd"
viewBox="0 0 1706.66 1706.66"
 xmlns:xlink="http://www.w3.org/1999/xlink"
 xmlns:xodm="http://www.corel.com/coreldraw/odm/2003">
 <defs>
  <style type="text/css">
   <![CDATA[
    .fil0 {fill:black}
   ]]>
  </style>
 </defs>
 <g id="Layer_x0020_1">
  <metadata id="CorelCorpID_0Corel-Layer"/>
  <path class="fil0" d="M853.35 1391.58c-296.94,0 -538.51,-241.58 -538.51,-538.52 0,-296.94 241.58,-538.51 538.51,-538.51 296.93,0 538.52,241.58 538.52,538.51 -0.01,296.93 -241.59,538.52 -538.52,538.52zm-207.38 -352.16c-69.37,0 -131.61,-23.69 -147.19,-90.5 -10.9,-46.73 -7.02,-205.05 -7.02,-262.59 0,-25.83 39.24,-25.83 39.24,0 0,51.15 -3.46,213.14 5.98,253.67 16.49,70.7 126.25,67.59 164.65,51.72 53.47,-22.09 51.52,-68.24 51.52,-133.17l0 -172.22c0,-25.83 39.24,-25.83 39.24,0 0,52.69 3.18,219.24 -5.8,259.91 -14.97,67.79 -72.72,93.19 -140.63,93.19zm431.94 -5.57l-70.7 0c-8.28,0 -15.68,-5.22 -18.47,-13.02l-117.19 -327.89c-8.7,-24.33 28.26,-37.5 36.97,-13.19l112.52 314.86 43.06 0 112.74 -314.87c8.71,-24.33 45.67,-11.09 36.94,13.23l-117.41 327.89c-2.79,7.78 -10.18,13 -18.48,13z"/>
  <path class="fil0" d="M1670.89 889.06l-181.61 0c-47.37,0 -47.37,-71.96 0,-71.96l181.61 0c47.38,0 47.38,71.96 0,71.96zm-109.55 408.76c-19.18,0 -149.02,-80.51 -175.23,-95.62 -40.96,-23.63 -5.17,-86.07 35.97,-62.32l157.27 90.81c31.73,18.32 18.59,67.13 -18.01,67.13zm-299.18 299.3c-12.85,0 -24.73,-6.85 -31.18,-18l-90.8 -157.26c-23.63,-40.93 38.55,-77.14 62.31,-35.98l90.81 157.26c13.76,23.84 -3.6,53.99 -31.14,53.99zm-408.81 109.54c-19.85,0 -35.98,-16.12 -35.98,-35.98l0 -181.6c0,-47.39 71.96,-47.37 71.96,0l0 181.6c0,19.86 -16.11,35.98 -35.98,35.98zm-408.81 -109.54c-27.54,0 -44.91,-30.12 -31.14,-53.97l90.8 -157.27c23.64,-40.94 86.08,-5.17 62.31,35.98l-90.81 157.27c-6.44,11.17 -18.32,17.99 -31.17,17.99zm-299.2 -299.26c-36.61,0 -49.76,-48.83 -18.02,-67.15l157.28 -90.79c40.91,-23.62 77.14,38.54 35.98,62.31 -26.12,15.09 -156.16,95.63 -175.24,95.63zm72.04 -408.79l-181.6 0c-47.38,0 -47.38,-71.96 0,-71.96l181.6 0c47.37,0 47.39,71.96 0,71.96zm1335.87 188.06l-94.83 -24.72c-45.94,-11.97 -27.34,-81.83 18.52,-69.54l87.71 23.5c39.07,10.47 34.57,70.75 -11.4,70.75zm-186.02 325.78c-25.15,0 -71.51,-56.6 -89.65,-74.75 -33.4,-33.39 17.52,-84.26 50.89,-50.89l64.21 64.2c22.6,22.6 6.49,61.44 -25.44,61.44zm-325.79 188.09c-16.24,0 -30.53,-10.94 -34.74,-26.66l-23.5 -87.71c-12.26,-45.74 57.24,-64.4 69.5,-18.64l23.51 87.71c6.1,22.75 -11.21,45.3 -34.76,45.3zm-376.15 0c-23.54,0 -40.88,-22.56 -34.78,-45.31l23.5 -87.71c12.27,-45.78 81.78,-27.1 69.53,18.63l-23.51 87.71c-4.21,15.7 -18.48,26.67 -34.74,26.67zm-325.8 -188.09c-31.9,0 -48.06,-38.81 -25.44,-61.44l64.21 -64.2c33.4,-33.39 84.25,17.55 50.87,50.9 -18.16,18.14 -64.49,74.74 -89.64,74.74zm-188.11 -325.78c-41.67,0 -49.57,-59.94 -9.3,-70.74l87.71 -23.5c45.82,-12.28 64.5,57.56 18.51,69.54l-96.93 24.7zm701.96 -824.02c-19.86,0 -35.98,-16.12 -35.98,-35.98l0 -181.59c0,-47.39 71.96,-47.39 71.96,0l0 181.61c0,19.86 -16.12,35.96 -35.98,35.96zm317.96 85.2c-27.55,0 -44.91,-30.11 -31.14,-53.96l90.79 -157.27c23.61,-40.91 86.09,-5.21 62.31,35.97l-90.8 157.27c-6.44,11.16 -18.32,17.99 -31.17,17.99zm232.8 232.78c-36.61,0 -49.73,-48.82 -18.01,-67.13l157.27 -90.81c40.93,-23.63 77.15,38.57 35.98,62.32 -26.2,15.11 -156.07,95.62 -175.24,95.62zm-1101.54 0.02c-19.16,0 -149.07,-80.51 -175.26,-95.63 -40.89,-23.61 -5.22,-86.1 35.98,-62.31l157.27 90.81c31.72,18.31 18.61,67.13 -18,67.13zm232.82 -232.78c-12.85,0 -24.74,-6.82 -31.19,-17.99l-90.81 -157.27c-23.63,-40.94 38.56,-77.13 62.31,-35.98l90.81 157.27c13.77,23.85 -3.58,53.97 -31.13,53.97zm482.57 -63.53c-23.54,0 -40.86,-22.55 -34.77,-45.3l23.5 -87.71c12.25,-45.74 81.78,-27.16 69.51,18.62l-23.51 87.71c-4.21,15.72 -18.46,26.68 -34.74,26.68zm285.07 164.57c-31.94,0 -48.05,-38.82 -25.45,-61.42l64.2 -64.2c33.38,-33.39 84.28,17.51 50.89,50.88 -18.15,18.14 -64.5,74.74 -89.64,74.74zm164.57 285.09c-41.65,0 -49.56,-59.96 -9.31,-70.74l87.71 -23.51c45.89,-12.3 64.44,57.59 18.52,69.55l-96.93 24.7zm-1230.58 0l-94.84 -24.7c-45.97,-11.97 -27.33,-81.83 18.51,-69.55l87.71 23.51c39.15,10.49 34.65,70.74 -11.38,70.74zm166.67 -285.09c-25.14,0 -71.48,-56.61 -89.63,-74.74 -33.39,-33.37 17.5,-84.26 50.87,-50.88l64.21 64.2c22.59,22.59 6.48,61.42 -25.44,61.42zm285.07 -164.57c-16.28,0 -30.54,-10.96 -34.75,-26.68l-23.5 -87.71c-12.27,-45.78 57.25,-64.39 69.52,-18.62l23.51 87.71c6.09,22.75 -11.24,45.3 -34.78,45.3z"/>
 </g>
</svg>
